# xmcd
#
# Track frame offsets: 
#        150
#        12835
#        34040
#        50450
#        66418
#        83408
#        89091
#        107835
#        132924
#        153560
#        173262
#        193796
#        212926
#        228398
#        249249
#        268422
#        286313
#        306086
#        328803
#
# Disc length: 4414 seconds
#
# Revision: 0
# Processed by: cddbd v1.5.2PL0 Copyright (c) Steve Scherf et al.
# Submitted via: ExactAudioCopy v0.95b3
#
DISCID=0e113c13
DTITLE=Preast - Fear God, Tell the Truth, And Make Money
DYEAR=2006
DGENRE=Rap
TTITLE0=Introducing Me...
TTITLE1=The Realest Nigga Alive
TTITLE2=The La La
TTITLE3=Tales from the Pimp
TTITLE4=Hound Dogz - ft. Royale and Alexander Monday
TTITLE5=Black People in America
TTITLE6=Fuck R.A.P. (This Is the Way)
TTITLE7=Label Hoes
TTITLE8=Say My Name
TTITLE9=For My Mamas
TTITLE10=Your Purse is My Favorite Place - ft. Co Baby
TTITLE11=Fear God, Tell the Truth, And Make Money
TTITLE12=Rivers Run Deep (Poppa's Song)
TTITLE13=Mahalia - ft. Royale
TTITLE14=True Stories
TTITLE15=All I Know - ft. Qualo
TTITLE16=The Beast - ft. Shala
TTITLE17=Til we Meet again...
TTITLE18=Out
EXTD=
EXTT0=
EXTT1=
EXTT2=
EXTT3=
EXTT4=
EXTT5=
EXTT6=
EXTT7=
EXTT8=
EXTT9=
EXTT10=
EXTT11=
EXTT12=
EXTT13=
EXTT14=
EXTT15=
EXTT16=
EXTT17=
EXTT18=
PLAYORDER=
